# xmcd
#
# Track frame offsets:
#	150
#	12694
#	35358
#	43600
#	58559
#	67168
#	80355
#	95209
#	111831
#	122629
#
# Disc length: 1758 seconds
# Revision: 0
# Processed by: cddbd v1.5.2PL0 Copyright (c) Steve Scherf et al.
# Submitted via: dBpowerAMP V12.0
#
DISCID=8a06dc0a
DTITLE=Susanna Berivan - Susanna Berivan
DYEAR=2015
DGENRE=Pop/Rock
TTITLE0=When you are Hungry
TTITLE1=King of the Sun
TTITLE2=Cracked
TTITLE3=Schoolgirl
TTITLE4=Shooting Butterflies
TTITLE5=Yellow Moon
TTITLE6=Jacket
TTITLE7=Pigeon
TTITLE8=Under the Morning Sun
TTITLE9=The Reminder
EXTD=
EXTT0=
EXTT1=
EXTT2=
EXTT3=
EXTT4=
EXTT5=
EXTT6=
EXTT7=
EXTT8=
EXTT9=
PLAYORDER=
